<?xml version="1.0" encoding="UTF-8" standalone="no"?>
<!-- Created with Inkscape (http://www.inkscape.org/) -->

<svg
   xmlns:dc="http://purl.org/dc/elements/1.1/"
   xmlns:cc="http://creativecommons.org/ns#"
   xmlns:rdf="http://www.w3.org/1999/02/22-rdf-syntax-ns#"
   xmlns:svg="http://www.w3.org/2000/svg"
   xmlns="http://www.w3.org/2000/svg"
   xmlns:sodipodi="http://sodipodi.sourceforge.net/DTD/sodipodi-0.dtd"
   xmlns:inkscape="http://www.inkscape.org/namespaces/inkscape"
   width="114.74995mm"
   height="114.74998mm"
   viewBox="0 0 114.74995 114.74998"
   version="1.1"
   id="svg3709"
   inkscape:version="0.92.1 r15371"
   sodipodi:docname="GE-Logo.svg">
  <defs
     id="defs3703" />
  <sodipodi:namedview
     id="base"
     pagecolor="#ffffff"
     bordercolor="#666666"
     borderopacity="1.0"
     inkscape:pageopacity="0.0"
     inkscape:pageshadow="2"
     inkscape:zoom="0.98994949"
     inkscape:cx="281.61452"
     inkscape:cy="50.267648"
     inkscape:document-units="mm"
     inkscape:current-layer="layer1"
     showgrid="false"
     inkscape:snap-grids="true"
     inkscape:window-width="1521"
     inkscape:window-height="1178"
     inkscape:window-x="71"
     inkscape:window-y="-8"
     inkscape:window-maximized="1" />
  <metadata
     id="metadata3706">
    <rdf:RDF>
      <cc:Work
         rdf:about="">
        <dc:format>image/svg+xml</dc:format>
        <dc:type
           rdf:resource="http://purl.org/dc/dcmitype/StillImage" />
        <dc:title></dc:title>
      </cc:Work>
    </rdf:RDF>
  </metadata>
  <g
     inkscape:label="Ebene 1"
     inkscape:groupmode="layer"
     id="layer1"
     transform="translate(-0.92506669,-0.56850031)">
    <path
       d="m 115.67502,58.031609 c 0,15.771072 -5.82319,29.409972 -17.082583,40.56425 -11.25937,11.136681 -24.71169,16.722621 -40.39375,16.722621 -15.88477,0 -29.33706,-5.58594 -40.59645,-16.722621 C 6.5455367,87.441581 0.92506669,73.802681 0.92506669,58.031609 c 0,-15.947284 5.62047001,-29.392351 16.67717031,-40.546655 11.25939,-11.3481117 24.71168,-16.91645369 40.59645,-16.91645369 15.68206,0 29.13438,5.56834199 40.39375,16.91645369 11.259393,11.154304 17.082583,24.599371 17.082583,40.546655 z m -2.80104,0 c 0,-14.978116 -5.23348,-27.859302 -16.087453,-38.625912 C 86.135247,8.6390593 73.272637,3.2645783 58.198687,3.2645783 c -15.07395,0 -27.93656,5.374481 -38.58781,15.9472847 C 8.9595967,29.978473 3.5233867,42.85966 3.5233867,58.031609 c 0,14.995737 5.43621,27.876923 16.0874903,38.643533 10.65125,10.748988 23.51386,15.947288 38.58781,15.947288 15.27667,0 28.13926,-5.1983 38.79053,-15.947288 C 107.6405,85.908532 112.87398,73.027346 112.87398,58.031609 Z m -3.42757,0 c 0,5.762175 -0.79237,11.348111 -2.41403,16.334952 l -0.58968,-0.193834 c 1.1978,-4.405339 1.80592,-8.440605 1.80592,-12.299686 0,-3.259931 -0.60812,-5.955982 -1.80592,-8.070559 -1.21623,-2.11455 -2.81948,-3.066097 -4.62539,-3.066097 -2.616753,0 -3.814553,1.339215 -3.814553,3.841432 0,0.951548 0.7924,2.696078 2.598323,5.004462 1.82435,2.484596 2.61675,5.374508 2.61675,9.022106 0,3.083746 -0.60812,6.925178 -2.00864,11.541972 -3.022143,9.409774 -8.642643,16.704998 -16.879863,21.903293 -7.64754,4.8106 -16.29018,7.11901 -26.13064,7.11901 -7.03943,0 -12.45719,-0.77533 -16.27174,-2.50224 l 0.18428,-0.5815 c 3.22484,1.33921 7.24212,1.92071 12.27291,1.92071 3.40915,0 6.22861,-0.5815 8.23722,-1.72688 1.80594,-1.163 2.81945,-2.69605 2.81945,-4.61677 0,-2.502241 -1.21621,-3.841456 -3.83297,-3.841456 -1.19782,0 -2.80103,0.775335 -5.21507,2.696046 -2.41405,1.72691 -5.23351,2.67846 -8.64264,2.67846 -3.42757,0 -7.24212,-0.75771 -11.66481,-2.11455 C 26.650297,98.208191 19.408147,92.63985 14.174667,84.181623 9.3649867,76.674944 6.9509567,67.846672 6.9509567,58.031609 c 0,-4.035293 0.7924,-9.409774 2.61676,-16.334952 l 0.38697,0.193834 c -1.19782,3.841432 -1.80591,7.876725 -1.80591,12.299659 0,7.506679 2.2113403,11.154304 6.4312803,11.154304 2.61676,0 3.81458,-1.356836 3.81458,-3.841459 0,-1.163002 -0.7924,-2.889885 -2.59834,-5.198269 -1.82436,-2.30841 -2.61673,-5.180674 -2.61673,-8.84592 0,-3.259931 0.60812,-7.10139 2.21133,-11.524324 2.61673,-9.409774 8.23722,-16.722619 16.67717,-21.903293 7.64754,-4.8106287 16.47446,-7.3128457 26.13062,-7.3128457 5.82319,0 11.0567,0.969169 16.08748,2.889885 v 0.387667 c -2.81945,-1.356836 -6.83672,-2.11455 -12.27293,-2.11455 -3.40913,0 -6.02589,0.56388 -8.03452,1.920717 -2.21134,1.1454067 -3.02215,2.6784567 -3.02215,4.5991727 0,2.502218 1.21623,3.85908 4.01727,3.85908 1.01351,0 2.61673,-0.969195 4.82806,-2.696077 2.41406,-1.726883 5.43621,-2.502218 8.84537,-2.502218 3.22485,0 7.03942,0.581501 11.66479,1.920716 9.43504,2.889885 16.67716,8.652061 21.910673,17.110287 4.80965,7.489058 7.22368,16.141144 7.22368,25.938586 z m -19.293893,15.18957 c 0,-3.453791 -0.99512,-6.53751 -2.81945,-8.845894 -1.80594,-2.502244 -4.60695,-3.647625 -7.83183,-3.647625 -2.61675,0 -4.82809,0.775335 -6.634,2.502244 -2.00864,1.726883 -2.80104,3.841433 -2.80104,6.149816 0,2.114577 0.38698,3.841459 1.60322,5.180674 0.9951,1.356837 2.21133,1.920717 3.81455,1.920717 1.60322,0 2.41406,-0.56388 2.41406,-1.920717 0,-0.757713 -0.40542,-1.533048 -1.21624,-2.502217 -0.7924,-0.951548 -1.19782,-1.920743 -1.19782,-3.066124 0.20272,-2.308384 1.40052,-3.453765 3.61185,-3.453765 3.833,0 5.63891,2.484596 5.63891,7.682891 0,2.889885 -1.01351,5.180674 -2.81945,7.101391 -1.80592,1.744503 -4.01725,2.696051 -6.63401,2.696051 -3.20643,0 -5.82319,-1.339215 -8.03452,-3.841433 -2.00864,-2.696077 -3.02215,-5.762175 -3.02215,-9.4098 0,-8.264393 3.42757,-13.268828 10.06157,-15.189571 1.60322,0.387668 2.80102,0.581502 3.61186,0.387668 3.40913,0 5.21507,-0.969169 5.21507,-2.696051 0,-1.533049 -1.40052,-2.308384 -4.60695,-2.308384 -2.41406,0 -3.833,0.193834 -4.03569,0.581501 -0.9951,-0.581501 -1.80594,-1.533049 -2.39562,-3.083745 7.4264,-5.568315 11.03826,-10.555155 11.03826,-15.171949 0,-3.471386 -1.80594,-5.392103 -5.4178,-5.392103 -3.22484,0 -6.02588,1.744504 -8.23722,5.004435 -2.21133,3.259958 -3.22487,6.925178 -3.22487,10.766637 0,1.726882 0,3.066098 0.20272,3.647599 -2.81945,2.114576 -7.03942,4.810627 -12.45721,8.264392 0,-1.726882 0,-3.259931 0.40542,-4.810601 3.00373,-3.259958 4.42267,-5.762175 4.42267,-7.489058 0,-1.339215 -0.60812,-2.114576 -1.80592,-2.114576 -3.22487,0 -5.23351,2.696078 -6.24702,8.070585 -2.21134,2.696052 -4.42267,4.035267 -6.61559,4.035267 -1.62166,0 -2.41406,-0.775335 -2.81945,-2.308384 3.20643,-1.145381 6.22858,-3.453792 9.04806,-7.10139 3.00371,-3.665247 4.60695,-7.119012 4.60695,-10.766637 0,-3.453765 -2.00864,-5.198269 -5.62049,-5.198269 -3.20643,0 -6.22861,2.11455 -9.04806,6.343677 -2.61676,4.035266 -4.01725,8.264392 -4.01725,12.687326 -2.41406,0 -3.61185,-1.533049 -3.61185,-4.810601 0,-0.75774 0.20269,-1.726909 0.60811,-2.87229 0.18429,-1.163003 0.38698,-1.726883 0.38698,-1.920716 0,-0.969169 -0.38698,-1.356837 -1.40052,-1.356837 -2.61675,0 -4.01724,2.308384 -3.81455,6.731344 0,5.392103 2.80104,8.264393 8.03453,8.65206 0.81081,3.841433 3.02215,5.956009 6.634,5.956009 2.61676,0 4.62539,-0.775361 6.22861,-2.30841 0,0.775335 -0.2027,1.726909 -0.40542,3.083745 -4.62537,2.502218 -7.8318,4.035267 -9.23232,4.79298 -3.02218,1.920743 -5.43621,3.665247 -7.44485,5.585963 -3.81455,3.453792 -5.82318,7.295224 -5.82318,11.136683 0,2.696051 0.7924,4.810601 2.41405,6.537484 1.60322,1.920742 3.81456,2.696077 6.81829,2.696077 7.44482,0 12.67833,-4.616793 15.68207,-14.026567 1.01351,-2.696052 1.60321,-7.506679 2.00861,-14.414236 5.43621,-2.889885 10.24588,-5.956009 14.66855,-9.233561 0.60812,0.969168 1.01351,1.533048 1.62163,1.920716 -7.64754,3.841459 -11.25937,9.991275 -11.25937,18.255668 0,4.616794 1.40049,8.458253 4.21995,11.929639 2.81945,3.647625 7.03942,5.568341 12.25449,5.568341 4.4227,0 8.05297,-1.533048 10.85398,-4.42296 3.02217,-3.083718 4.42269,-6.343676 4.42269,-10.185109 z m -41.79427,-10.96047 c -0.60812,5.392129 -2.21133,9.991302 -4.03569,13.850355 -2.59834,4.599173 -5.41779,6.907557 -8.64264,6.907557 -2.39562,0 -3.61185,-1.533049 -3.61185,-4.2291 0,-5.762175 5.43621,-11.136683 16.29018,-16.528812 z m 1.80592,-29.780018 c 0,1.920742 -0.81082,4.229126 -2.61676,6.907556 -1.80591,2.696078 -4.01725,4.616794 -6.43128,5.956009 0,-2.484596 0.9951,-5.568341 2.81945,-8.828273 1.80592,-3.471412 3.61183,-5.004461 5.01235,-5.004461 0.81084,0 1.21624,0.387667 1.21624,0.969169 z m 28.13925,0.75774 c 0,2.308384 -2.41403,5.585936 -7.24212,9.815062 0,-3.083745 0.60812,-5.779796 2.21134,-8.08818 1.40051,-2.290789 2.81945,-3.453791 4.01727,-3.453791 1.01351,0 1.21624,0.581501 1.01351,1.726909 z"
       style="fill:#1b1918;fill-rule:evenodd;stroke-width:0.26458332"
       id="path3680"
       inkscape:connector-curvature="0" />
  </g>
</svg>
