<?xml version="1.0" encoding="UTF-8" standalone="no"?>
<!-- Created with Inkscape (http://www.inkscape.org/) -->

<svg
   xmlns:dc="http://purl.org/dc/elements/1.1/"
   xmlns:cc="http://creativecommons.org/ns#"
   xmlns:rdf="http://www.w3.org/1999/02/22-rdf-syntax-ns#"
   xmlns:svg="http://www.w3.org/2000/svg"
   xmlns="http://www.w3.org/2000/svg"
   xmlns:sodipodi="http://sodipodi.sourceforge.net/DTD/sodipodi-0.dtd"
   xmlns:inkscape="http://www.inkscape.org/namespaces/inkscape"
   width="114.74995mm"
   height="114.74998mm"
   viewBox="0 0 114.74995 114.74998"
   version="1.1"
   id="svg3709"
   inkscape:version="0.92.1 r15371"
   sodipodi:docname="GY-Logo1.svg"
   inkscape:export-filename="C:\Ruby22-x64\lib\ruby\gems\2.2.0\gems\asciidoctor-pdf-1.5.0.alpha.15\data\themes\GY-Logo1.png"
   inkscape:export-xdpi="221.35057"
   inkscape:export-ydpi="221.35057">
  <defs
     id="defs3703" />
  <sodipodi:namedview
     id="base"
     pagecolor="#ffffff"
     bordercolor="#666666"
     borderopacity="1.0"
     inkscape:pageopacity="0.0"
     inkscape:pageshadow="2"
     inkscape:zoom="0.9899495"
     inkscape:cx="501.93303"
     inkscape:cy="221.27026"
     inkscape:document-units="mm"
     inkscape:current-layer="layer1"
     showgrid="false"
     inkscape:snap-grids="true"
     inkscape:window-width="1858"
     inkscape:window-height="1058"
     inkscape:window-x="54"
     inkscape:window-y="-8"
     inkscape:window-maximized="1" />
  <metadata
     id="metadata3706">
    <rdf:RDF>
      <cc:Work
         rdf:about="">
        <dc:format>image/svg+xml</dc:format>
        <dc:type
           rdf:resource="http://purl.org/dc/dcmitype/StillImage" />
        <dc:title></dc:title>
      </cc:Work>
    </rdf:RDF>
  </metadata>
  <g
     inkscape:label="Ebene 1"
     inkscape:groupmode="layer"
     id="layer1"
     transform="translate(-0.92506669,-0.56850031)">
    <path
       style="fill:#1b1918;fill-rule:evenodd;stroke-width:0.99999994"
       d="M 217.52734 -0.29296875 C 158.2566 -0.29296875 107.41252 20.752079 64.857422 63.642578 C 22.302248 105.80058 0.29296875 156.61743 0.29296875 216.89062 C 0.29296875 276.49784 22.302248 328.04717 64.857422 370.20508 C 107.41252 412.29647 158.2566 433.4082 217.52734 433.4082 C 277.56427 433.4082 328.40768 412.29647 370.96289 370.20508 C 412.75201 328.04717 433.99414 276.49784 433.99414 216.89062 C 433.99414 156.61743 412.75201 105.80058 370.96289 63.642578 C 328.40768 20.752079 277.56427 -0.29296875 217.52734 -0.29296875 z M 217.52734 9.8964844 C 274.49975 9.8964844 323.11436 30.209717 363.37109 70.169922 C 403.62792 110.86262 424.17383 159.54783 424.17383 216.89062 C 424.17383 273.56744 403.62792 322.25261 363.37109 362.94531 C 323.11436 403.57142 274.49975 423.21875 217.52734 423.21875 C 159.78875 423.21875 111.17474 403.57142 70.917969 362.94531 C 30.661125 322.25261 10.880859 273.56744 10.880859 216.89062 C 10.880859 160.28043 30.660678 111.59504 71.683594 70.902344 C 111.94036 30.209541 160.55493 9.8964844 217.52734 9.8964844 z M 217.52734 22.951172 C 195.51847 22.951172 175.73858 26.613648 156.72461 33.873047 L 156.72461 35.337891 C 167.3808 30.209692 182.56311 27.345703 203.10938 27.345703 C 215.99431 27.345703 225.88489 29.477266 233.47656 34.605469 C 241.83438 38.934567 244.89844 44.728882 244.89844 51.988281 C 244.89844 61.445483 240.30145 66.574219 229.71484 66.574219 C 225.88425 66.574219 219.82458 62.911564 211.4668 56.384766 C 202.34275 49.857964 190.92216 46.925781 178.03711 46.925781 C 165.8487 46.925781 151.43097 49.123951 133.94922 54.185547 C 98.289225 65.107947 70.916914 86.887363 51.136719 118.85547 C 32.958515 147.16057 23.833984 179.86093 23.833984 216.89062 C 23.833984 238.66893 26.829876 259.781 32.958984 278.62891 L 35.1875 277.89648 C 30.660382 261.24638 28.361328 245.99567 28.361328 231.41016 C 28.361328 219.08918 30.660382 208.89835 35.1875 200.90625 C 39.784274 192.91425 45.844397 189.31836 52.669922 189.31836 C 62.560001 189.31836 67.085938 194.37874 67.085938 203.83594 C 67.085938 207.43234 64.091187 214.02735 57.265625 222.75195 C 50.370444 232.14255 47.375 243.06341 47.375 256.84961 C 47.375 268.50471 49.673493 283.0253 54.966797 300.47461 C 66.389058 336.03909 87.632787 363.61073 118.76562 383.25781 C 147.66968 401.43961 180.33505 410.16406 217.52734 410.16406 C 244.13306 410.16406 264.61015 407.2339 279.02734 400.70703 L 278.33008 398.50977 C 266.14171 403.57138 250.95741 405.76953 231.94336 405.76953 C 219.05838 405.76953 208.40218 403.57118 200.81055 399.24219 C 193.98495 394.8466 190.1543 389.05238 190.1543 381.79297 C 190.1543 372.33568 194.75242 367.27344 204.64258 367.27344 C 209.16973 367.27344 215.22763 370.20351 224.35156 377.46289 C 233.47553 383.9898 244.13268 387.58594 257.01758 387.58594 C 269.97214 387.58594 284.38983 384.72392 301.10547 379.5957 C 336.76542 368.7398 364.13592 347.69272 383.91602 315.72461 C 402.09433 287.35292 411.21875 253.98693 411.21875 216.89062 C 411.21875 201.63913 408.22334 181.32624 401.32812 155.15234 L 399.86719 155.88477 C 404.39438 170.40356 406.69141 185.65449 406.69141 202.37109 C 406.69141 230.74279 398.33415 244.5293 382.38477 244.5293 C 372.49463 244.5293 367.9668 239.40048 367.9668 230.00977 C 367.9668 225.61418 370.96151 219.08788 377.78711 210.36328 C 384.68234 201.63858 387.67773 190.78258 387.67773 176.92969 C 387.67773 164.60869 385.37969 150.08965 379.32031 133.37305 C 369.43029 97.808539 348.18809 70.170344 316.28906 50.589844 C 287.38497 32.407942 254.0231 22.951172 217.52734 22.951172 z M 176.58789 99.955078 C 190.23898 99.955078 197.83008 106.54797 197.83008 119.60156 C 197.83008 133.38786 191.77057 146.44202 180.41797 160.29492 C 169.76167 174.08112 158.33949 182.80577 146.2207 187.13477 C 147.75289 192.92897 150.74784 195.85938 156.87695 195.85938 C 165.16515 195.85938 173.52304 190.79722 181.88086 180.60742 C 185.71145 160.29432 193.3037 150.10547 205.49219 150.10547 C 210.01931 150.10547 212.31641 153.0341 212.31641 158.0957 C 212.31641 164.62251 206.95424 174.08125 195.60156 186.40234 C 194.06927 192.26314 192.04883 204.11773 192.04883 210.64453 C 207.46163 201.16627 212.63232 197.68087 223.64258 181.66406 C 240.86456 156.61101 239.646 148.39511 245.92383 138.41602 C 246.5868 136.97117 247.25911 135.51832 247.98633 134.00781 C 251.28041 128.1228 254.14878 126.55097 260.46875 125.5918 C 270.58016 124.52375 262.40453 139.57191 258.76367 144.88086 C 253.01236 152.94672 246.5233 164.83692 255.9082 184.72266 C 264.1964 197.34956 285.68515 190.26794 294.04297 180.07812 C 297.87356 159.76504 305.46581 149.57422 317.6543 149.57422 C 322.18141 149.57422 324.48047 152.50481 324.48047 157.56641 C 324.48047 164.0932 319.11635 173.55 307.76367 185.87109 C 306.23138 191.73189 304.21289 203.58843 304.21289 210.11523 C 326.98538 185.84546 329.70521 180.8565 342.79492 182.80078 C 342.79492 182.80078 351.42739 200.22617 301.91406 228.29688 C 300.38184 254.40416 300.17239 266.52504 296.3418 276.71484 C 284.98904 312.27934 265.21013 329.72852 237.07227 329.72852 C 225.71959 329.72852 217.3602 326.79858 211.30078 319.53906 C 205.17171 313.01226 202.17773 306.5355 202.17773 296.3457 C 202.17773 281.8268 209.76839 265.79198 224.18555 252.73828 C 231.77726 245.47888 240.90181 238.88645 252.32422 231.62695 C 257.61752 228.76316 269.73704 222.96892 287.21875 213.51172 C 287.98494 208.38352 288.75 204.78587 288.75 201.85547 C 282.69059 207.64967 260.52714 210.86811 251.57227 203.00391 C 245.58595 196.26455 241.58501 190.06087 239.2832 183.87695 C 228.91248 201.62916 213.27208 219.00118 189.75 228.82617 C 188.21778 254.93347 188.01028 267.05434 184.17969 277.24414 C 172.82697 312.80864 153.04611 330.25781 124.9082 330.25781 C 113.55556 330.25781 105.19809 327.32785 99.138672 320.06836 C 93.009601 313.54156 90.015625 307.0648 90.015625 296.875 C 90.015625 282.3561 97.606241 266.32128 112.02344 253.26758 C 119.61515 246.00818 130.75923 240.42552 142.18164 233.16602 C 147.47494 230.30221 157.06715 225.2658 174.54883 215.80859 C 175.31505 210.68039 176.58789 205.31712 176.58789 202.38672 C 170.52848 208.18092 162.93699 211.11133 153.04688 211.11133 C 139.39579 211.11133 131.03713 203.11841 127.97266 188.59961 C 108.19254 187.13441 97.605469 176.27804 97.605469 155.89844 C 96.839396 139.18174 102.13336 130.45703 112.02344 130.45703 C 115.85414 130.45703 117.31641 131.92293 117.31641 135.58594 C 117.31641 136.31853 116.55008 138.4501 115.85352 142.8457 C 114.32122 147.1747 113.55664 150.83727 113.55664 153.70117 C 113.55664 166.08877 118.08306 171.88281 127.20703 171.88281 C 127.20703 155.16621 132.50051 139.18304 142.39062 123.93164 C 153.04681 107.94754 164.4691 99.955078 176.58789 99.955078 z M 175.05469 117.4043 C 169.76138 117.40429 162.93685 123.19806 156.11133 136.31836 C 149.21615 148.63936 145.45508 160.29497 145.45508 169.68555 C 154.57897 164.62395 162.93623 157.36373 169.76172 147.17383 C 176.58732 137.05063 179.65234 128.32591 179.65234 121.06641 C 179.65234 118.86861 178.11928 117.40429 175.05469 117.4043 z M 284.99023 233.0918 C 243.96736 253.47149 223.41992 273.7842 223.41992 295.5625 C 223.41992 305.7523 228.01795 311.54687 237.07227 311.54688 C 249.26068 311.54688 259.91583 302.82215 269.73633 285.43945 C 276.63155 270.85406 282.69183 253.47149 284.99023 233.0918 z M 172.82617 233.62109 C 131.80329 254.00079 111.25781 274.3135 111.25781 296.0918 C 111.25781 306.28157 115.85393 312.07617 124.9082 312.07617 C 137.09665 312.07617 147.75372 303.35145 157.57422 285.96875 C 164.46944 271.38335 170.52777 254.00079 172.82617 233.62109 z "
       transform="matrix(0.26458333,0,0,0.26458333,0.92506669,0.56850031)"
       id="path3680" />
  </g>
  <g
     inkscape:groupmode="layer"
     id="layer2"
     inkscape:label="Ebene 2" />
</svg>
