<?xml version="1.0" encoding="UTF-8" standalone="no"?>
<!-- Created with Inkscape (http://www.inkscape.org/) -->

<svg
   xmlns:dc="http://purl.org/dc/elements/1.1/"
   xmlns:cc="http://creativecommons.org/ns#"
   xmlns:rdf="http://www.w3.org/1999/02/22-rdf-syntax-ns#"
   xmlns:svg="http://www.w3.org/2000/svg"
   xmlns="http://www.w3.org/2000/svg"
   xmlns:sodipodi="http://sodipodi.sourceforge.net/DTD/sodipodi-0.dtd"
   xmlns:inkscape="http://www.inkscape.org/namespaces/inkscape"
   width="114.74995mm"
   height="114.74998mm"
   viewBox="0 0 114.74995 114.74998"
   version="1.1"
   id="svg3709"
   inkscape:version="0.92.1 r15371"
   sodipodi:docname="GY-Logo.svg">
  <defs
     id="defs3703" />
  <sodipodi:namedview
     id="base"
     pagecolor="#ffffff"
     bordercolor="#666666"
     borderopacity="1.0"
     inkscape:pageopacity="0.0"
     inkscape:pageshadow="2"
     inkscape:zoom="1.979899"
     inkscape:cx="186.4654"
     inkscape:cy="233.89362"
     inkscape:document-units="mm"
     inkscape:current-layer="layer1"
     showgrid="false"
     inkscape:snap-grids="true"
     inkscape:window-width="1858"
     inkscape:window-height="1058"
     inkscape:window-x="54"
     inkscape:window-y="-8"
     inkscape:window-maximized="1" />
  <metadata
     id="metadata3706">
    <rdf:RDF>
      <cc:Work
         rdf:about="">
        <dc:format>image/svg+xml</dc:format>
        <dc:type
           rdf:resource="http://purl.org/dc/dcmitype/StillImage" />
        <dc:title />
      </cc:Work>
    </rdf:RDF>
  </metadata>
  <g
     inkscape:label="Ebene 1"
     inkscape:groupmode="layer"
     id="layer1"
     transform="translate(-0.92506669,-0.56850031)">
    <path
       style="fill:#1b1918;fill-rule:evenodd;stroke-width:0.99999994"
       d="M 216.4668,0 C 156.42987,0 105.58642,21.045046 63.03125,63.935547 21.242148,106.09355 0,156.91039 0,217.18359 c 0,59.60721 21.242148,111.15656 63.03125,153.31446 42.55517,42.09139 93.39862,63.20312 153.43555,63.20312 59.27077,0 110.11482,-21.11173 152.66992,-63.20312 42.55518,-42.1579 64.56445,-93.70725 64.56445,-153.31446 0,-60.2732 -22.00927,-111.09004 -64.56445,-153.248043 C 326.58162,21.045046 275.73757,0 216.4668,0 Z m 0,10.189453 c 56.97241,0 105.58694,20.313057 145.84375,61.005859 41.02289,40.692698 60.80273,89.378078 60.80273,145.988278 0,56.67681 -19.78029,105.36199 -60.03711,146.05469 -40.25677,40.6261 -88.87078,60.27344 -146.60937,60.27344 -56.97241,0 -105.58706,-19.64734 -145.843753,-60.27344 C 30.366239,322.54558 9.8203125,273.8604 9.8203125,217.18359 c 0,-57.3428 20.5459265,-106.028 60.8027345,-146.720699 C 110.87974,30.502688 159.49439,10.189453 216.4668,10.189453 Z m 0,13.054688 c -36.49573,0 -69.85763,9.456769 -98.76172,27.638671 -31.899026,19.580501 -53.141249,47.218699 -63.031252,82.783208 -6.059376,16.7166 -8.357422,31.23564 -8.357422,43.55664 0,13.85289 2.995406,24.70889 9.890625,33.43359 6.8256,8.7246 9.820313,15.25089 9.820313,19.64648 0,9.39071 -4.527852,14.51954 -14.417969,14.51954 -15.94938,0 -24.306641,-13.78651 -24.306641,-42.15821 0,-16.7166 2.297025,-31.96753 6.824219,-46.48633 l -1.460937,-0.73242 c -6.895219,26.1739 -9.890625,46.48678 -9.890625,61.73828 0,37.0963 9.124415,70.46229 27.302734,98.83399 19.780082,31.9681 47.150631,53.0152 82.810545,63.87109 16.71568,5.12822 31.1333,7.99024 44.08789,7.99024 12.8849,0 23.54205,-3.59615 32.66602,-10.12305 9.12393,-7.25938 15.18179,-10.18945 19.70898,-10.18945 9.89012,0 14.48828,5.06224 14.48828,14.51953 0,7.25941 -3.83065,13.05363 -10.65625,17.44922 -7.59159,4.32899 -18.24783,6.52734 -31.13281,6.52734 -19.01401,0 -34.19835,-2.19818 -46.38672,-7.25977 L 154.9668,401 c 14.41719,6.5269 34.89428,9.45703 61.5,9.45703 37.19229,0 69.85763,-8.72445 98.76172,-26.90625 31.1328,-19.6471 52.37655,-47.2187 63.79882,-82.7832 5.29331,-17.4493 7.5918,-31.9699 7.5918,-43.625 0,-13.7862 -2.99544,-24.70706 -9.89062,-34.09766 -6.82554,-8.7246 -9.82032,-15.31961 -9.82032,-18.91601 0,-9.4572 4.52593,-14.51758 14.41602,-14.51758 6.82549,0 12.88565,3.59589 17.48242,11.58789 4.52712,7.9921 6.82617,18.18292 6.82617,30.5039 0,14.58551 -2.29905,29.83623 -6.82617,46.48633 l 2.22852,0.73243 c 6.1291,-18.84791 9.125,-39.95999 9.125,-61.73829 0,-37.0297 -9.12453,-69.73005 -27.30274,-98.03515 -19.7802,-31.968103 -47.1525,-53.747525 -82.8125,-64.669924 -17.48171,-5.0616 -31.89948,-7.259766 -44.08789,-7.259766 -12.88501,0 -24.30568,2.932182 -33.42969,9.458984 -8.35778,6.526798 -14.41745,10.189454 -18.24804,10.189454 -10.58661,0 -15.1836,-5.128736 -15.1836,-14.585938 0,-7.259399 3.06406,-13.053717 11.42188,-17.382812 7.59167,-5.128203 17.48228,-7.259766 30.36719,-7.259766 20.5463,0 35.72857,2.863988 46.38476,7.992187 V 34.166016 C 258.25556,26.906617 238.4757,23.244141 216.4668,23.244141 Z M 182.43219,93.38337 c 13.65109,0 21.24219,6.592884 21.24219,19.64648 0,13.7863 -6.0595,26.84046 -17.41211,40.69336 -10.6563,13.7862 -22.07847,22.51084 -34.19726,26.83984 1.53218,5.7942 4.52714,8.72461 10.65625,8.72461 8.2882,0 16.64608,-5.06215 25.0039,-15.25195 3.83059,-20.3131 11.42285,-30.50195 23.61133,-30.50195 4.52712,0 6.82422,2.92863 6.82422,7.99023 0,6.5268 -5.36216,15.98554 -16.71484,28.30664 -1.5323,5.8608 -3.55274,17.71539 -3.55274,24.24219 15.41277,-9.47826 20.58405,-12.96339 31.59432,-28.98019 17.22198,-25.05306 16.00284,-33.26924 22.28068,-43.24833 0.66295,-1.44485 1.33527,-2.89769 2.0625,-4.4082 3.29406,-5.88501 6.1631,-7.45762 12.4831,-8.41679 10.11138,-1.06805 1.93512,13.98089 -1.70575,19.28984 -5.75131,8.06586 -12.24038,19.95605 -2.85547,39.84179 8.2882,12.6269 29.77694,5.54528 38.13476,-4.64453 3.83059,-20.31309 11.42285,-30.5039 23.61133,-30.5039 4.52712,0 6.82617,2.93058 6.82617,7.99218 0,6.52679 -5.36411,15.9836 -16.71679,28.30469 -1.5323,5.8608 -3.55079,17.71734 -3.55079,24.24414 22.77248,-24.26977 25.49232,-29.25873 38.58204,-27.31445 0,0 8.63246,17.42538 -40.88086,45.49609 -1.53222,26.10729 -1.74168,38.22817 -5.57227,48.41797 -11.35272,35.5645 -31.13163,53.01367 -59.26953,53.01367 -11.35268,0 -19.71208,-2.92993 -25.77148,-10.18945 -6.12907,-6.5268 -9.12305,-13.00356 -9.12305,-23.19336 0,-14.5189 7.59062,-30.55372 22.00781,-43.60742 7.59171,-7.2594 16.71626,-13.85183 28.13867,-21.11133 5.29331,-2.86379 17.41282,-8.65803 34.89453,-18.11523 0.76619,-5.1282 1.53125,-8.72585 1.53125,-11.65625 -6.05942,5.7942 -28.22286,9.01263 -37.17773,1.14843 -5.98634,-6.73936 -9.98725,-12.94303 -12.28906,-19.12695 -10.37074,17.75221 -26.01114,35.12423 -49.53321,44.94922 -1.53222,26.1073 -1.73972,38.22817 -5.57031,48.41797 -11.35272,35.5645 -31.13358,53.01367 -59.27148,53.01367 -11.35268,0 -19.71012,-2.92996 -25.76953,-10.18945 -6.129071,-6.5268 -9.123047,-13.00356 -9.123047,-23.19336 0,-14.5189 7.590617,-30.55372 22.007807,-43.60742 7.59171,-7.2594 16.71626,-13.85183 28.13867,-21.11133 5.29331,-2.8638 16.9058,-6.89026 34.38751,-16.34747 0.76619,-5.1282 2.03827,-10.49166 2.03827,-13.42206 -6.05941,5.7942 -13.65089,8.72461 -23.54101,8.72461 -13.65109,0 -22.00974,-7.99292 -25.07422,-22.51172 -19.78012,-1.4652 -30.36718,-12.32157 -30.36718,-32.70117 -0.76607,-16.7167 4.52789,-25.44141 14.41796,-25.44141 3.8307,0 5.29297,1.4659 5.29297,5.12891 0,0.73259 -0.76636,2.86416 -1.46289,7.25976 -1.5323,4.329 -2.29688,7.99157 -2.29688,10.85547 0,12.3876 4.5264,18.18164 13.65039,18.18164 0,-16.7166 5.29348,-32.69977 15.1836,-47.95117 10.65619,-15.9841 22.07847,-23.97656 34.19726,-23.97656 z m -1.5332,17.44922 c -5.2933,-1e-5 -12.11783,5.79376 -18.94336,18.91406 -6.89518,12.321 -10.65625,23.9766 -10.65625,33.36718 9.12389,-5.06159 17.48116,-12.32181 24.30664,-22.51171 6.8256,-10.1232 9.89063,-18.84793 9.89063,-26.10743 0,-2.1978 -1.53307,-3.66211 -4.59766,-3.6621 z m 109.93555,115.6875 c -41.02288,20.37969 -61.57031,40.6924 -61.57031,62.4707 0,10.1898 4.59803,15.98437 13.65234,15.98437 12.18841,0 22.84357,-8.72472 32.66406,-26.10742 6.89522,-14.58539 12.9555,-31.96796 15.25391,-52.34765 z m -112.16406,0.52929 c -41.02288,20.3797 -61.56836,40.69241 -61.56836,62.47071 0,10.18978 4.59608,15.98437 13.65039,15.98437 12.18841,0 22.84551,-8.72472 32.66601,-26.10742 6.89522,-14.5854 12.95355,-31.96796 15.25196,-52.34766 z"
       transform="matrix(0.26458333,0,0,0.26458333,0.92506669,0.56850031)"
       id="path3680"
       inkscape:connector-curvature="0"
       sodipodi:nodetypes="scscscscsscscscscssccscsssccsccscsscsccsccscsscsccsccscsscsccsssccscssccsccccccsscccccscsccccccccscsccccsccsscsccsccccsccsscccsscc" />
  </g>
</svg>
